<svg width="32" height="32" viewBox="0 0 32 32" fill="none" xmlns="http://www.w3.org/2000/svg">
<path d="M0 16C0 7.16344 7.16344 0 16 0V0C24.8366 0 32 7.16344 32 16V16C32 24.8366 24.8366 32 16 32V32C7.16344 32 0 24.8366 0 16V16Z" fill="#2DC071"/>
<g clip-path="url(#clip0_2685_1714)">
<path fill-rule="evenodd" clip-rule="evenodd" d="M23.7957 10.2043C23.8604 10.269 23.9118 10.3457 23.9469 10.4302C23.982 10.5147 24 10.6053 24 10.6968C24 10.7883 23.982 10.8789 23.9469 10.9634C23.9118 11.0479 23.8604 11.1246 23.7957 11.1893L14.0578 20.9271C13.9932 20.9919 13.9164 21.0433 13.8319 21.0783C13.7474 21.1134 13.6568 21.1314 13.5654 21.1314C13.4739 21.1314 13.3833 21.1134 13.2988 21.0783C13.2143 21.0433 13.1375 20.9919 13.0729 20.9271L8.20398 16.0582C8.07337 15.9276 8 15.7504 8 15.5657C8 15.381 8.07337 15.2039 8.20398 15.0733C8.33459 14.9427 8.51173 14.8693 8.69644 14.8693C8.88115 14.8693 9.05829 14.9427 9.1889 15.0733L13.5654 19.4511L22.8107 10.2043C22.8754 10.1396 22.9521 10.0882 23.0366 10.0531C23.1211 10.018 23.2117 10 23.3032 10C23.3947 10 23.4853 10.018 23.5698 10.0531C23.6543 10.0882 23.731 10.1396 23.7957 10.2043Z" fill="white"/>
</g>
<defs>
<clipPath id="clip0_2685_1714">
<rect width="16" height="11" fill="white" transform="translate(8 10)"/>
</clipPath>
</defs>
</svg>
